<svg xmlns="http://www.w3.org/2000/svg" width="101.7" height="50"><path d="M49.3 29.7v-7.7c0-5.3-4.1-9.7-9.2-9.8h-.4c-2.6.1-4.8 1.2-6.3 3v-2.2h-9.5v2.2h.7c.8 0 1.5.6 1.5 1.5v13.1c0 .8-.6 1.5-1.5 1.5h-1.5v3.6h12.3v-3.6h-.7c-.8 0-1.5-.6-1.5-1.5v-8.7c0-2.8 2.3-5.1 5.1-5.1 2 0 3.6 2.3 3.6 5.1v8.7c0 .8-.6 1.5-1.5 1.5h-.7v3.6h12.3v-3.6h-1.5c-.5-.2-1.2-.8-1.2-1.6zm52.4-16.7h-10.9v2.2h2c.8 0 1.2.6.9 1.4l-1.5 3.7-3.7 9.3-3.9-13c-.2-.8.2-1.5 1-1.5h1.5v-2.1h-21.1v2.2h.8c.8 0 1.3.6 1 1.5l-3.6 13.1-3.6-13.1c-.2-.8.2-1.5 1-1.5h1.5v-2.2h-13.8v2.2h1.4c.8 0 1.6.6 1.9 1.4l5.4 18.1h8l5.5-18.2c.3-.8 1.1-1.4 1.9-1.4h1.5c.8 0 1.6.6 1.9 1.4l5.5 18.2 1.9 6.2-1 2.5c-.9 1.8-2.6 2.9-4.6 2.9-1.2 0-2.4-.4-3.3-1.1-.2-.1-.6-.6-1-1.4 1.2-.6 2.1-1.8 2.1-3.3 0-2-1.6-3.6-3.6-3.6s-3.6 1.6-3.6 3.6c0 5.2 4.2 9.4 9.4 9.4 4.2 0 7.8-2.8 9-6.6l.6-1.5 10.2-25.4c.3-.8 1.2-1.5 2-1.5h1.6l-.3-1.9zm-90.1-.8c-6.4 0-11.6 5.2-11.6 11.6 0 6.4 5.2 11.6 11.6 11.6 5.1 0 9.5-3.3 11-8h-5.2c-1 2.2-2.9 3.4-4.9 3.4-1.7 0-3.2-1-4.2-2.5-.1-.1-.1-.2-.1-.3-1-1.4-1.2-3.1-1.2-3.1h16.1v-1c.1-6.5-5.1-11.7-11.5-11.7zm5.6 9.5h-9.9c0-3.2 2.3-5.8 5.1-5.8s5.1 2.6 5.1 5.8h-.3z" fill="#fff"/><path d="M29.6 1.4l-1.3 4.5h-1.6l-1.3-4.5v4.6h-1.4l.2-6h2.1l1.2 4.5 1.3-4.5h2.1l.2 6h-1.4l-.1-4.6zm8.3 4.6h-1.5l-.4-1.3h-2.2l-.5 1.3h-1.5l2.2-6h1.9l2 6zm-3-4.8l-.8 2.3h1.6l-.8-2.3zm6.1 4.8h-2.1v-6h2.2c2.1 0 3.3 1.2 3.3 2.9 0 1.9-1.3 3.1-3.4 3.1zm0-4.8h-.6v3.5h.6c1.1 0 1.8-.6 1.8-1.8 0-1.1-.6-1.7-1.8-1.7zm4.6 4.8v-6h4.4v1.2h-3v1.1h2.3v1.2h-2.3v1.2h2.9v1.3h-4.3zm10.8 0h-1.6l-1.6-6h1.6l.8 4.2 1.1-4.2h1.7l1.1 4.2.8-4.2h1.6l-1.6 6h-1.6l-1.2-4.2-1.1 4.2zm6.6 0v-6h1.5v6h-1.5zm6-4.7v4.7h-1.5v-4.7h-1.9v-1.3h5.3v1.3h-1.9zm6.9 4.7v-2.4h-2.4v2.4h-1.5v-6h1.5v2.3h2.4v-2.3h1.5v6h-1.5z" opacity=".75" fill="#fff"/></svg>